<?xml version="1.0" encoding="UTF-8" standalone="no" ?>
<!DOCTYPE svg PUBLIC "-//W3C//DTD SVG 1.1//EN" "http://www.w3.org/Graphics/SVG/1.1/DTD/svg11.dtd">
<svg xmlns="http://www.w3.org/2000/svg" xmlns:xlink="http://www.w3.org/1999/xlink" version="1.1" width="320" height="320" viewBox="0 0 320 320" xml:space="preserve">
<desc>Created with Fabric.js 5.3.0</desc>
<defs>
</defs>
<g transform="matrix(4.0115966797 0 0 4.0115966797 160 160)" id="0jTpFucT-l92xJBIcn-CN"  >
<g style="" vector-effect="non-scaling-stroke"   >
		<g transform="matrix(1 0 0 1 0 0)" id="BMTh38FBEJcXR8L0yXFPc"  >
<path style="stroke: none; stroke-width: 1; stroke-dasharray: none; stroke-linecap: butt; stroke-dashoffset: 0; stroke-linejoin: miter; stroke-miterlimit: 4; fill: rgb(0,0,0); fill-rule: nonzero; opacity: 1;" vector-effect="non-scaling-stroke"  transform=" translate(-32, -32)" d="M 5 20 C 5.552284749830793 20 6 19.552284749830793 6 19 L 6 14 L 11 14 C 11.552284749830793 14 12 13.552284749830793 12 13 C 12 12.447715250169207 11.552284749830793 12 11 12 L 5 12 C 4.447715250169207 12 4 12.447715250169207 4 13 L 4 19 C 4 19.552284749830793 4.447715250169207 20 5 20 z M 59 12 L 53 12 C 52.4477152501692 12 52 12.447715250169207 52 13 C 52 13.552284749830793 52.4477152501692 14 53 14 L 58 14 L 58 19 C 58 19.552284749830793 58.4477152501692 20 59 20 C 59.5522847498308 20 60 19.552284749830793 60 19 L 60 13 C 60 12.447715250169207 59.5522847498308 12 59 12 z M 59 44 C 58.4477152501692 44 58 44.4477152501692 58 45 L 58 50 L 53 50 C 52.4477152501692 50 52 50.4477152501692 52 51 C 52 51.5522847498308 52.4477152501692 52 53 52 L 59 52 C 59.5522847498308 52 60 51.5522847498308 60 51 L 60 45 C 60 44.4477152501692 59.5522847498308 44 59 44 z M 5 52 L 11 52 C 11.552284749830793 52 12 51.5522847498308 12 51 C 12 50.4477152501692 11.552284749830793 50 11 50 L 6 50 L 6 45 C 6 44.4477152501692 5.552284749830793 44 5 44 C 4.447715250169207 44 4 44.4477152501692 4 45 L 4 51 C 4 51.5522847498308 4.447715250169207 52 5 52 z M 16 47 L 16 45 C 16 44.4477152501692 15.552284749830793 44 15 44 C 14.447715250169207 44 14 44.4477152501692 14 45 L 14 47 C 14 47.5522847498308 14.447715250169207 48 15 48 C 15.552284749830793 48 16 47.5522847498308 16 47 z M 22 47 L 22 45 C 22 44.4477152501692 21.552284749830793 44 21 44 C 20.447715250169207 44 20 44.4477152501692 20 45 L 20 47 C 20 47.5522847498308 20.447715250169207 48 21 48 C 21.552284749830793 48 22 47.5522847498308 22 47 z M 28 47 L 28 43 C 28 42.4477152501692 27.552284749830793 42 27 42 C 26.447715250169207 42 26 42.4477152501692 26 43 L 26 47 C 26 47.5522847498308 26.447715250169207 48 27 48 C 27.552284749830793 48 28 47.5522847498308 28 47 z M 38 47 L 38 45 C 38 44.4477152501692 37.5522847498308 44 37 44 C 36.4477152501692 44 36 44.4477152501692 36 45 L 36 47 C 36 47.5522847498308 36.4477152501692 48 37 48 C 37.5522847498308 48 38 47.5522847498308 38 47 z M 44 47 L 44 43 C 44 42.4477152501692 43.5522847498308 42 43 42 C 42.4477152501692 42 42 42.4477152501692 42 43 L 42 47 C 42 47.5522847498308 42.4477152501692 48 43 48 C 43.5522847498308 48 44 47.5522847498308 44 47 z M 50 47 L 50 45 C 50 44.4477152501692 49.5522847498308 44 49 44 C 48.4477152501692 44 48 44.4477152501692 48 45 L 48 47 C 48 47.5522847498308 48.4477152501692 48 49 48 C 49.5522847498308 48 50 47.5522847498308 50 47 z" stroke-linecap="round" />
</g>
		<g transform="matrix(1 0 0 1 0 0)" id="83Rnvwd51in5CBRp_JaxU"  >
<path style="stroke: none; stroke-width: 1; stroke-dasharray: none; stroke-linecap: butt; stroke-dashoffset: 0; stroke-linejoin: miter; stroke-miterlimit: 4; fill: rgb(0,0,0); fill-rule: nonzero; opacity: 1;" vector-effect="non-scaling-stroke"  transform=" translate(-32, -32)" d="M 59 31 L 5 31 C 4.447715250169207 31 4 31.447715250169207 4 32 C 4 32.5522847498308 4.447715250169207 33 5 33 L 8 33 L 8 47 C 8 47.5522847498308 8.447715250169207 48 9 48 C 9.552284749830793 48 10 47.5522847498308 10 47 L 10 33 L 14 33 L 14 41 C 14 41.5522847498308 14.447715250169207 42 15 42 C 15.552284749830793 42 16 41.5522847498308 16 41 L 16 33 L 20 33 L 20 41 C 20 41.5522847498308 20.447715250169207 42 21 42 C 21.552284749830793 42 22 41.5522847498308 22 41 L 22 33 L 26 33 L 26 39 C 26 39.5522847498308 26.447715250169207 40 27 40 C 27.552284749830793 40 28 39.5522847498308 28 39 L 28 33 L 31 33 L 31 47 C 31 47.5522847498308 31.447715250169207 48 32 48 C 32.5522847498308 48 33 47.5522847498308 33 47 L 33 33 L 36 33 L 36 41 C 36 41.5522847498308 36.4477152501692 42 37 42 C 37.5522847498308 42 38 41.5522847498308 38 41 L 38 33 L 42 33 L 42 39 C 42 39.5522847498308 42.4477152501692 40 43 40 C 43.5522847498308 40 44 39.5522847498308 44 39 L 44 33 L 48 33 L 48 41 C 48 41.5522847498308 48.4477152501692 42 49 42 C 49.5522847498308 42 50 41.5522847498308 50 41 L 50 33 L 54 33 L 54 47 C 54 47.5522847498308 54.4477152501692 48 55 48 C 55.5522847498308 48 56 47.5522847498308 56 47 L 56 33 L 59 33 C 59.5522847498308 33 60 32.5522847498308 60 32 C 60 31.447715250169207 59.5522847498308 31 59 31 z M 8 17 L 8 28 C 8 28.552284749830793 8.447715250169207 29 9 29 C 9.552284749830793 29 10 28.552284749830793 10 28 L 10 17 C 10 16.447715250169207 9.552284749830793 16 9 16 C 8.447715250169207 16 8 16.447715250169207 8 17 z M 14 17 L 14 28 C 14 28.552284749830793 14.447715250169207 29 15 29 C 15.552284749830793 29 16 28.552284749830793 16 28 L 16 17 C 16 16.447715250169207 15.552284749830793 16 15 16 C 14.447715250169207 16 14 16.447715250169207 14 17 z M 20 17 L 20 28 C 20 28.552284749830793 20.447715250169207 29 21 29 C 21.552284749830793 29 22 28.552284749830793 22 28 L 22 17 C 22 16.447715250169207 21.552284749830793 16 21 16 C 20.447715250169207 16 20 16.447715250169207 20 17 z M 26 17 L 26 28 C 26 28.552284749830793 26.447715250169207 29 27 29 C 27.552284749830793 29 28 28.552284749830793 28 28 L 28 17 C 28 16.447715250169207 27.552284749830793 16 27 16 C 26.447715250169207 16 26 16.447715250169207 26 17 z M 31 17 L 31 28 C 31 28.552284749830793 31.447715250169207 29 32 29 C 32.5522847498308 29 33 28.552284749830793 33 28 L 33 17 C 33 16.447715250169207 32.5522847498308 16 32 16 C 31.447715250169207 16 31 16.447715250169207 31 17 z M 36 17 L 36 28 C 36 28.552284749830793 36.4477152501692 29 37 29 C 37.5522847498308 29 38 28.552284749830793 38 28 L 38 17 C 38 16.447715250169207 37.5522847498308 16 37 16 C 36.4477152501692 16 36 16.447715250169207 36 17 z M 42 17 L 42 28 C 42 28.552284749830793 42.4477152501692 29 43 29 C 43.5522847498308 29 44 28.552284749830793 44 28 L 44 17 C 44 16.447715250169207 43.5522847498308 16 43 16 C 42.4477152501692 16 42 16.447715250169207 42 17 z M 48 17 L 48 28 C 48 28.552284749830793 48.4477152501692 29 49 29 C 49.5522847498308 29 50 28.552284749830793 50 28 L 50 17 C 50 16.447715250169207 49.5522847498308 16 49 16 C 48.4477152501692 16 48 16.447715250169207 48 17 z M 56 28 L 56 17 C 56 16.447715250169207 55.5522847498308 16 55 16 C 54.4477152501692 16 54 16.447715250169207 54 17 L 54 28 C 54 28.552284749830793 54.4477152501692 29 55 29 C 55.5522847498308 29 56 28.552284749830793 56 28 z" stroke-linecap="round" />
</g>
</g>
</g>
</svg>