<?xml version="1.0" encoding="UTF-8" standalone="no" ?>
<!DOCTYPE svg PUBLIC "-//W3C//DTD SVG 1.1//EN" "http://www.w3.org/Graphics/SVG/1.1/DTD/svg11.dtd">
<svg xmlns="http://www.w3.org/2000/svg" xmlns:xlink="http://www.w3.org/1999/xlink" version="1.1" width="320" height="320" viewBox="0 0 320 320" xml:space="preserve">
<desc>Created with Fabric.js 5.3.0</desc>
<defs>
</defs>
<g transform="matrix(9.7109375 0 0 9.7109375 160 160)" id="6kwAM_gr0nUqvoOUehFNe"  >
<g style="" vector-effect="non-scaling-stroke"   >
		<g transform="matrix(1 0 0 1 -0.000106913 -3.5001173071)" id="SFICDw1GuI425X8G8x1uP"  >
<path style="stroke: none; stroke-width: 1; stroke-dasharray: none; stroke-linecap: butt; stroke-dashoffset: 0; stroke-linejoin: miter; stroke-miterlimit: 4; fill: rgb(0,0,0); fill-rule: nonzero; opacity: 1;" vector-effect="non-scaling-stroke"  transform=" translate(-11.999893087, -8.4998826929)" d="M 19 1.25 C 17.28518660861259 1.2437604359475414 15.786191108405166 2.4054176595142467 15.36427788859435 4.067528707064929 C 14.942364668783533 5.729639754615611 15.705823213627738 7.465602330540328 17.216 8.277999999999999 C 16.34570559858161 10.078204316515723 14.523534796758428 11.223080600355182 12.524000000000001 11.225999999999999 L 12.5 11.225999999999999 L 9.07 11.212 C 7.83219119450168 11.220929812717136 6.644559113010441 11.70242161443015 5.749999999999999 12.558 L 5.75 8.674 C 7.636222414764907 8.288976461868803 8.924502154594911 6.5382259675290735 8.731010573769215 4.622856778305702 C 8.537518992943518 2.707487589082331 6.925117690655982 1.249765385825233 5 1.249765385825233 C 3.074882309344018 1.249765385825233 1.462481007056482 2.707487589082331 1.2689894262307853 4.622856778305702 C 1.0754978454050885 6.5382259675290735 2.363777585235092 8.288976461868803 4.249999999999999 8.674 L 4.25 15 C 4.25 15.414213562373096 4.585786437626905 15.75 5 15.75 C 5.018 15.75 5.032 15.741 5.05 15.74 C 5.07612584692382 15.744806510851644 5.102500534126356 15.748145078851964 5.129 15.75 C 5.4705343482094015 15.749872027710428 5.768730427715709 15.518718652975883 5.853999999999999 15.188 C 6.230258685932784 13.728864180546271 7.547134491811876 12.709931525747322 9.053999999999997 12.712 L 9.066999999999998 12.712 L 12.496999999999998 12.725999999999999 L 12.524999999999999 12.725999999999999 C 15.182634241824358 12.720253780536884 17.586826050164593 11.147648864807485 18.656999999999996 8.715 C 18.770999999999997 8.725999999999999 18.881999999999998 8.75 18.999999999999996 8.75 C 21.071067811865472 8.75 22.749999999999996 7.0710678118654755 22.749999999999996 5 C 22.749999999999996 2.9289321881345245 21.071067811865472 1.25 18.999999999999996 1.25 Z M 2.75 5 C 2.75 3.757359312880715 3.757359312880715 2.75 5 2.75 C 6.242640687119286 2.75 7.25 3.7573593128807143 7.25 4.999999999999999 C 7.25 6.242640687119285 6.242640687119286 7.25 5.000000000000001 7.25 C 3.757816350244504 7.248897306361572 2.7511026936384275 6.242183649755496 2.75 5 Z M 19 7.25 C 17.757359312880716 7.25 16.75 6.242640687119286 16.75 5 C 16.75 3.757359312880715 17.757359312880716 2.75 19 2.75 C 20.242640687119284 2.75 21.25 3.7573593128807143 21.25 5 C 21.248897306361574 6.242183649755496 20.242183649755496 7.248897306361572 19 7.25 Z" stroke-linecap="round" />
</g>
		<g transform="matrix(1 0 0 1 -6.75 6.75)" id="JR1l9YXM_UpAbyUieYYl-"  >
<path style="stroke: none; stroke-width: 1; stroke-dasharray: none; stroke-linecap: butt; stroke-dashoffset: 0; stroke-linejoin: miter; stroke-miterlimit: 4; fill: rgb(31,199,89); fill-rule: nonzero; opacity: 1;" vector-effect="non-scaling-stroke"  transform=" translate(-5.25, -18.75)" d="M 5.25 14.75 C 3.040861000676826 14.75 1.25 16.540861000676827 1.25 18.75 C 1.25 20.959138999323173 3.040861000676826 22.75 5.25 22.75 C 7.459138999323174 22.75 9.25 20.959138999323173 9.25 18.75 C 9.25 16.540861000676827 7.459138999323174 14.75 5.25 14.75 Z M 5.25 21.25 C 3.8692881254230165 21.25 2.75 20.130711874576985 2.75 18.75 C 2.75 17.369288125423015 3.8692881254230165 16.25 5.25 16.25 C 6.630711874576983 16.25 7.75 17.369288125423015 7.75 18.75 C 7.75 20.130711874576985 6.630711874576983 21.25 5.25 21.25 Z" stroke-linecap="round" />
</g>
</g>
</g>
</svg>