<?xml version="1.0" encoding="UTF-8" standalone="no" ?>
<!DOCTYPE svg PUBLIC "-//W3C//DTD SVG 1.1//EN" "http://www.w3.org/Graphics/SVG/1.1/DTD/svg11.dtd">
<svg xmlns="http://www.w3.org/2000/svg" xmlns:xlink="http://www.w3.org/1999/xlink" version="1.1" width="320" height="320" viewBox="0 0 320 320" xml:space="preserve">
<desc>Created with Fabric.js 5.3.0</desc>
<defs>
</defs>
<g transform="matrix(0.4598083496 0 0 0.4598083496 160 160)" id="JikeDBZSXPoyfGEvE9fPx"  >
<g style="" vector-effect="non-scaling-stroke"   >
		<g transform="matrix(1 0 0 1 146.55 7.9996606028)" id="OerH_4_bWRqfSrBhAPgCv"  >
<path style="stroke: none; stroke-width: 1; stroke-dasharray: none; stroke-linecap: butt; stroke-dashoffset: 0; stroke-linejoin: miter; stroke-miterlimit: 4; fill: rgb(255,102,102); fill-rule: nonzero; opacity: 1;" vector-effect="non-scaling-stroke"  transform=" translate(-402.55, -263.9996606028)" d="M 495.88 240.57 L 483.17 238.79999999999998 C 479.70142708350505 238.31357567667 476.7394520644979 236.04942831899106 475.36 232.82999999999998 C 472.90476604336834 227.1678590123515 469.7970756850501 221.81162379434295 466.09999999999997 216.8699999999999 C 463.9830126966999 214.05816933676087 463.4970851590374 210.34158293542052 464.82000000000005 207.07999999999998 L 469.58000000000004 195.36999999999998 C 471.47040198149125 190.73663691080176 469.64101141540374 185.41943629348194 465.30000000000007 182.92999999999998 L 441.7200000000001 169.39 C 437.4099441783122 166.91799705183152 431.9388888480433 167.9824047036348 428.87000000000006 171.89 L 420.95000000000005 181.98 C 418.8246477406756 184.71172650213123 415.4282927007766 186.13698263494595 411.99000000000007 185.73999999999998 C 405.7593500311812 184.99332134983308 399.4622278692989 184.98660799998032 393.2300000000001 185.71999999999997 C 389.76551611155156 186.135762241583 386.3350640842485 184.71430421921985 384.18000000000006 181.96999999999997 L 376.2800000000001 171.90999999999997 C 373.21111115195686 168.0024047036348 367.740055821688 166.9379970518315 363.43000000000006 169.40999999999997 L 339.83000000000004 182.96999999999997 C 335.49839332869897 185.4622749712 333.6710502219002 190.7692550687488 335.55000000000007 195.39999999999998 L 340.31000000000006 207.10999999999999 C 341.6238332241556 210.37077384910737 341.13439276515584 214.08141546850115 339.02000000000004 216.89 C 335.31642245608606 221.83448690459258 332.20832945688477 227.19812903496367 329.76000000000005 232.87 C 328.3783153376147 236.08943488931732 325.41837128256975 238.35581970995352 321.95000000000005 238.84999999999997 L 309.22 240.61999999999998 C 304.27994337705513 241.31339785165616 300.6064702304551 245.5415185116801 300.61 250.52999999999997 L 300.6 277.52 C 300.5971659189058 282.51178740096685 304.27597196945385 286.74113403216535 309.22 287.43 L 321.93 289.2 C 325.3973945212964 289.6892412583554 328.35813887180086 291.9524478873582 329.74 295.17 C 330.9678458694556 298.0004902799073 332.35678657831454 300.7583388989397 333.9 303.42999999999995 C 335.4508044059899 306.09016409404484 337.15016055433773 308.66089932828413 338.99 311.13 C 341.10976931579086 313.94020478563266 341.59947015373797 317.65661657129357 340.28000000000003 320.92 L 335.51000000000005 332.63 C 333.6283111001148 337.26602576388035 335.460634913909 342.5793377087755 339.80000000000007 345.07 L 363.38000000000005 358.61 C 367.68692272353917 361.0811011167375 373.1548180980972 360.0164797431865 376.22 356.11 L 384.14000000000004 346.02000000000004 C 386.26781311892483 343.29148933156165 389.6622782551748 341.8670262833139 393.1 342.26000000000005 C 399.3306499688189 343.0066786501669 405.6277721307012 343.0133920000197 411.86 342.28000000000003 C 415.32737971246206 341.8640137339061 418.76090342324574 343.28517421022383 420.92 346.03000000000003 L 428.82 356.09000000000003 C 431.8844637603929 359.99765380090736 437.3533024689085 361.0624588454003 441.65999999999997 358.59000000000003 L 465.26 345.03000000000003 C 469.5995244732258 342.5442682630928 471.42921750875405 337.2304634893508 469.53999999999996 332.6 L 464.78999999999996 320.89000000000004 C 463.467628507783 317.6316746142657 463.95363698877054 313.91826606422 466.06999999999994 311.11000000000007 C 469.7766693993094 306.1657537417539 472.88810260300426 300.8021396538312 475.3399999999999 295.13000000000005 C 476.71747480029745 291.9114512154434 479.67419141105756 289.6446351471939 483.13999999999993 289.15000000000003 L 495.86999999999995 287.38000000000005 C 500.812260356785 286.68787393166383 504.4893604957145 282.46048850512193 504.48999999999995 277.47 L 504.49999999999994 250.48000000000002 C 504.50283408109414 245.48821259903315 500.8240280305461 241.25886596783465 495.87999999999994 240.57000000000002 Z M 420.23 294.46999999999997 C 403.32130267901294 304.19567368577515 381.7326191162113 298.4467318804109 371.90000000000003 281.59999999999997 C 367.2144125979983 273.5137361186132 365.9476263585493 263.8925647111869 368.38042824408706 254.86904722370227 C 370.81323012962486 245.8455297362176 376.7446604797322 238.1650466375213 384.85999999999996 233.52999999999997 C 401.7718605662841 223.80459113521323 423.3627715562568 229.55293669667267 433.20000000000005 246.39999999999998 C 437.88394607359777 254.48766861350236 439.1487551786176 264.1094812622901 436.7141011533713 273.1329060112175 C 434.279447128125 282.15633076014484 428.34642462339434 289.8360615287898 420.23 294.46999999999997 Z" stroke-linecap="round" />
</g>
		<g transform="matrix(1 0 0 1 209.4475001636 7.9894388691)" id="VnfeoYZpj595rWovij2mj"  >
<path style="stroke: none; stroke-width: 1; stroke-dasharray: none; stroke-linecap: butt; stroke-dashoffset: 0; stroke-linejoin: miter; stroke-miterlimit: 4; fill: rgb(255,78,78); fill-rule: nonzero; opacity: 1;" vector-effect="non-scaling-stroke"  transform=" translate(-465.4475001636, -263.9894388691)" d="M 495.876 240.569 L 483.16799999999995 238.801 C 479.70135350212104 238.3111058323051 476.74149985988066 236.04800052439333 475.35999999999996 232.831 C 472.9066120440061 227.1694847936696 469.79986517816036 221.81414723956996 466.10299999999995 216.874 C 463.9853783533612 214.06277047155984 463.4969036584158 210.34702279206047 464.816 207.084 L 469.58299999999997 195.368 C 471.4692171585478 190.7329647421901 469.6389275975267 185.41726382757173 465.299 182.926 L 441.71799999999996 169.391 C 437.41064117781696 166.91824200738378 431.9411797841569 167.98155912821602 428.87399999999997 171.88799999999998 L 426.457 174.968 L 440.323 182.926 C 444.6629275975267 185.41726382757173 446.4932171585478 190.73296474219006 444.60699999999997 195.368 L 439.84 207.083 C 438.52052300765894 210.3463068778139 439.00901142655897 214.0625385090885 441.12699999999995 216.874 C 444.8238866710599 221.8144909811788 447.9306323107454 227.17016203207018 450.38399999999996 232.832 C 451.76559303764543 236.04833701576703 454.7249507314744 238.3109738896578 458.191 238.801 L 470.899 240.569 C 475.8426925245044 241.25680226693794 479.52219752030425 245.48469092309534 479.521 250.476 L 479.514 277.475 C 479.51205311041855 282.46199540140196 475.8360727131954 286.6852988634548 470.897 287.375 L 458.168 289.155 C 454.70150397001987 289.6464634901763 451.7427018414414 291.91115073119204 450.363 295.12899999999996 C 447.91263292074643 300.8017089623354 444.80253417026427 306.1660083612352 441.097 311.111 C 438.9810832068926 313.9199680245897 438.49334468823645 317.63285377516905 439.81199999999995 320.893 L 444.568 332.59599999999995 C 446.45087586923313 337.22912475306515 444.62150021047984 342.54084917339105 440.28499999999997 345.0319999999999 L 426.39799999999997 353.0089999999999 L 428.816 356.0889999999999 C 431.88321941905934 359.997410774081 437.35471168867815 361.0613002182709 441.66299999999995 358.5869999999999 L 465.26099999999997 345.03199999999987 C 469.5978756505695 342.5411727756672 471.42770484748274 337.22937168023935 469.54499999999996 332.5959999999999 L 464.78799999999995 320.8929999999999 C 463.4695484825389 317.6328277826378 463.9572733738783 313.9200457693449 466.073 311.11099999999993 C 469.7788906774382 306.1660637197776 472.88932679498896 300.8017613532408 475.34 295.1289999999999 C 476.71942779371216 291.9107629483421 479.67828060685986 289.6456578159196 483.145 289.1539999999999 L 495.873 287.37599999999986 C 500.81244889508076 286.6862461596446 504.48855172339665 282.462375427005 504.49 277.47499999999985 L 504.497 250.47599999999986 C 504.49826690233624 245.48502174067656 500.8192954184743 241.2572557633398 495.87600000000003 240.56899999999985 Z" stroke-linecap="round" />
</g>
		<g transform="matrix(1 0 0 1 -99.6700008182 -107.0798506886)" id="9PrF_T8NR4LOxu8hEpjD-"  >
<path style="stroke: none; stroke-width: 1; stroke-dasharray: none; stroke-linecap: butt; stroke-dashoffset: 0; stroke-linejoin: miter; stroke-miterlimit: 4; fill: rgb(102,193,255); fill-rule: nonzero; opacity: 1;" vector-effect="non-scaling-stroke"  transform=" translate(-156.3299991818, -148.9201493114)" d="M 296.54 115.26 L 271.44 111.77000000000001 C 267.93309883531754 111.3014669121943 264.9415919022916 108.99972145035012 263.59 105.73 C 261.5745833583292 100.78297897254284 259.2189466190768 95.98148961891766 256.53999999999996 91.36000000000001 C 253.85817983031157 86.74786652374878 250.86454996744266 82.32424382459877 247.57999999999996 78.12 C 245.40000826780397 75.31038262644945 244.88889477695875 71.5495027609763 246.23999999999995 68.26 L 255.69999999999996 45.010000000000005 C 257.59040198149114 40.3766369108018 255.76101141540363 35.059436293481966 251.41999999999996 32.57000000000001 L 210.06 8.83 C 205.75337762083947 6.357088292035284 200.28422419108858 7.421954614027277 197.22 11.329999999999997 L 181.59 31.229999999999997 C 179.4212712178966 34.014013147127 175.93789338628014 35.437820042235806 172.44 34.97 C 161.76554102163342 33.47665227479742 150.93538503832403 33.473286781949916 140.25999999999993 34.96000000000002 C 136.76469942718668 35.429967732303965 133.28324028058162 34.00538816903231 131.12 31.22 L 115.53 11.36 C 112.46398416826497 7.4477066549982265 106.98915373028747 6.382564546442291 102.68 8.86 L 61.3 32.63 C 56.96047552677415 35.1157317369072 55.130782491245924 40.4295365106492 57.019999999999996 45.06000000000001 L 66.46 68.3 C 67.80959554680767 71.58498116858422 67.30249301027695 75.34059017973277 65.13 78.14999999999999 C 58.52457730884755 86.57120175999688 53.12901420036828 95.87459317099918 49.099999999999966 105.79000000000003 C 47.750446361232164 109.0588621168851 44.76421210293904 111.36329033916486 41.25999999999999 111.83999999999999 L 16.129999999999992 115.35 C 11.191497933178388 116.03879816715313 7.517117935929507 120.26369502810132 7.519999999999991 125.25 L 7.499999999999993 172.66 C 7.4971659189057815 177.65178740096684 11.175971969453814 181.88113403216533 16.11999999999999 182.57 L 41.21999999999999 186.06 C 44.72673109489203 186.53630904005286 47.716163133992154 188.84026621668417 49.06999999999999 192.11 C 51.085413718136074 197.0570223382432 53.44105055507191 201.85851189097622 56.119999999999976 206.47999999999996 C 58.80189137862518 211.08890234041414 61.79552831301943 215.5091943763557 65.08 219.71000000000004 C 67.25999173219596 222.51961737355055 67.77110522304119 226.2804972390237 66.41999999999999 229.57 L 56.95999999999999 252.82999999999998 C 55.071001191029794 257.4634023075705 56.900070596130575 262.77966945697557 61.23999999999998 265.27 L 102.6 289.01 C 106.9065471832865 291.48336471382896 112.3760154727127 290.41843708738304 115.44 286.51 L 131.07 266.61 C 133.2356582999501 263.82193822696286 136.72146209192908 262.3971397371266 140.22 262.87 C 150.8945755299519 264.3650107154493 161.72542447004813 264.3650107154493 172.40000000000003 262.87 C 175.89637073543716 262.4086195351313 179.3751893211694 263.83592475356636 181.54000000000002 266.62 L 197.13000000000002 286.48 C 200.19888884804328 290.3875952963652 205.6699441783121 291.45200294816846 209.98000000000002 288.98 L 251.36 265.21000000000004 C 255.70101141540368 262.7205637065181 257.5304019814912 257.40336308919825 255.64000000000001 252.77000000000004 L 246.20000000000002 229.54000000000005 C 244.84976759013753 226.25510069709455 245.35691464528793 222.49916198037923 247.53000000000003 219.69000000000005 C 254.13333907609774 211.2673871265757 259.5287262405775 201.96429909000554 263.56000000000006 192.05000000000007 C 264.9095536387679 188.78113788311498 267.895787897061 186.4767096608352 271.40000000000003 186.00000000000006 L 296.53000000000003 182.49000000000007 C 301.46850206682166 181.80120183284694 305.14288206407053 177.57630497189874 305.14000000000004 172.59000000000006 L 305.16 125.17000000000006 C 305.1593604957145 120.17951149487817 301.48226035678505 115.95212606833627 296.54 115.26000000000006 Z M 184.02000000000004 196.64 C 157.54008158510962 211.8679782315692 123.73364955562408 202.86811556286617 108.33000000000004 176.49 C 100.99241769178424 163.8233788909871 99.010203575422 148.75321889650724 102.8227384645385 134.6199962573353 C 106.635273353655 120.48677361816337 115.9276121924567 108.45800252684968 128.64000000000001 101.19999999999999 C 155.11860680304432 85.96206145104172 188.93244069431546 94.96389462463287 204.33000000000004 121.34999999999997 C 211.6662163173491 134.0169356796037 213.64766821877666 149.0866341991117 209.83524075124004 163.21945862209697 C 206.02281328370344 177.3522830450823 196.7313653373383 189.3810385986098 184.02000000000004 196.64 Z" stroke-linecap="round" />
</g>
		<g transform="matrix(1 0 0 1 -111.424 -107.0855)" id="ay03FyDaLr5ph4LDNHtkT"  >
<path style="stroke: none; stroke-width: 1; stroke-dasharray: none; stroke-linecap: butt; stroke-dashoffset: 0; stroke-linejoin: miter; stroke-miterlimit: 4; fill: rgb(89,95,116); fill-rule: nonzero; opacity: 1;" vector-effect="non-scaling-stroke"  transform=" translate(-144.576, -148.9145)" d="M 147.83 34.166 Q 144.574 34.403999999999996 141.32100000000003 34.833999999999996 C 141.69300000000004 34.882999999999996 142.06600000000003 34.919 142.43700000000004 34.971 C 144.2749666510911 35.22089475679223 146.14608542044706 34.94164918591133 147.83100000000005 34.166 z M 142.4 262.873 C 142.047 262.923 141.693 262.956 141.339 263.003 C 143.469 263.279 145.606 263.50399999999996 147.751 263.663 C 146.07817915302107 262.89929874954316 144.2231562120782 262.6253794741516 142.401 262.873 z" stroke-linecap="round" />
</g>
		<g transform="matrix(1 0 0 1 -6.8444998364 -107.0959061104)" id="eNcbN1dx4SLWmcHZqW8OP"  >
<path style="stroke: none; stroke-width: 1; stroke-dasharray: none; stroke-linecap: butt; stroke-dashoffset: 0; stroke-linejoin: miter; stroke-miterlimit: 4; fill: rgb(78,183,255); fill-rule: nonzero; opacity: 1;" vector-effect="non-scaling-stroke"  transform=" translate(-249.1555001636, -148.9040938896)" d="M 296.536 115.265 L 271.436 111.773 C 267.93072926081106 111.29968964803172 264.94216457773047 108.99683770294283 263.59099999999995 105.728 C 259.5548933571807 95.82950495793077 254.16483103494795 86.5389167668995 247.57499999999993 78.12199999999996 C 245.39629146633345 75.31159767951245 244.88706524578092 71.5505710617986 246.23999999999995 68.26199999999999 L 255.70199999999994 45.00799999999998 C 257.58821715854776 40.372964742190064 255.75792759752665 35.057263827571724 251.41799999999995 32.56599999999998 L 210.06 8.828 C 205.75287192922457 6.355829608750063 200.28407204816656 7.419100908524404 197.217 11.325 L 193.239 16.392 L 221.417 32.566 C 225.7569275975267 35.057263827571745 227.58721715854784 40.37296474219007 225.701 45.007999999999996 L 216.239 68.262 C 214.88606524578097 71.55057106179862 215.3952914663335 75.31159767951246 217.574 78.122 C 224.16383103494803 86.53891676689956 229.5538933571807 95.82950495793071 233.58999999999997 105.72799999999995 C 234.94098891241177 108.99655712149972 237.9291037098651 111.29935594233163 241.434 111.77300000000001 L 266.534 115.26500000000001 C 271.4776925245044 115.95280226693797 275.15719752030424 120.18069092309536 275.156 125.17200000000001 L 275.14300000000003 172.58800000000002 C 275.14105311041857 177.57499540140196 271.4650727131954 181.79829886345482 266.526 182.48800000000003 L 241.401 186 C 237.89637850617353 186.4757308697322 234.9097106193495 188.7804937160696 233.561 192.05 C 229.53215889608865 201.9650733035052 224.1373071693205 211.26839884180515 217.53300000000002 219.69 C 215.3570886353714 222.49826399859273 214.84902615561623 226.25571406471002 216.20100000000002 229.541 L 225.64300000000003 252.774 C 227.52646103394528 257.4074020722142 225.69700870339756 262.71977625737003 221.36000000000004 265.211 L 193.15400000000005 281.41200000000003 L 197.13400000000004 286.482 C 200.20139512125542 290.389524646602 205.67217977919535 291.45293343461975 209.98000000000005 288.97900000000004 L 251.36000000000004 265.211 C 255.69700870339756 262.71977625737003 257.5264610339453 257.4074020722142 255.64300000000003 252.774 L 246.20100000000002 229.541 C 244.84902615561623 226.25571406471002 245.3570886353714 222.49826399859273 247.53300000000002 219.69 C 254.13695587533286 211.26833898748853 259.53146935831876 201.96501630266107 263.56 192.05 C 264.90888625905154 188.78021324302676 267.8960039888234 186.47539724186367 271.401 186 L 296.527 182.49 C 301.46644889508076 181.80024615964473 305.14255172339665 177.57637542700513 305.144 172.589 L 305.157 125.173 C 305.1582669023362 120.18202174067672 301.47929541847424 115.95425576333994 296.536 115.266 Z" stroke-linecap="round" />
</g>
		<g transform="matrix(1 0 0 1 -30.6653170756 160.8657425298)" id="LG5dq6iGv0r4gaRr3lmUD"  >
<path style="stroke: none; stroke-width: 1; stroke-dasharray: none; stroke-linecap: butt; stroke-dashoffset: 0; stroke-linejoin: miter; stroke-miterlimit: 4; fill: rgb(103,110,135); fill-rule: nonzero; opacity: 1;" vector-effect="non-scaling-stroke"  transform=" translate(-225.3346829244, -416.8657425298)" d="M 311.68 402.27 L 302.36 375.21 C 301.499982699292 372.7126820614699 298.9332940351793 371.2289484151057 296.34000000000003 371.72999999999996 L 281.17 374.68999999999994 C 279.3108314468179 375.0501730160098 277.40079150947156 374.3906183071058 276.16 372.9599999999999 C 271.9765730452385 368.11971550950756 267.12441830180137 363.90059691580404 261.75 360.42999999999995 C 260.16013742750016 359.4010876241353 259.24111457775183 357.60117565284395 259.34 355.7099999999999 L 260.15 340.2699999999999 C 260.2866289452622 337.6325155642744 258.4620276843576 335.2963438563873 255.86999999999998 334.7899999999999 L 227.76999999999998 329.3299999999999 C 225.1767059648207 328.8289484151057 222.610017300708 330.31268206146984 221.74999999999997 332.80999999999995 L 216.71999999999997 347.42999999999995 C 216.11046565247437 349.22757520735246 214.57648663319299 350.5549834858827 212.70999999999998 350.9 C 206.42837544614923 352.10013714784515 200.35034519681514 354.1912489399983 194.65999999999997 357.10999999999996 C 192.97625083800045 357.9770793259708 190.9567184947725 357.8740030059951 189.36999999999998 356.84 L 176.40999999999997 348.41999999999996 C 174.1929893366373 346.97902357710916 171.2529893029733 347.39292779084707 169.51999999999998 349.39 L 150.74999999999997 370.99 C 149.01472395606598 372.9817188664525 149.01472395606598 375.9482811335475 150.74999999999997 377.94 L 160.89 389.6 C 162.12950002914693 391.0296661488142 162.51082927287155 393.0125782161823 161.89 394.8 C 159.796261017387 400.8426021722212 158.57398324657206 407.1526532535084 158.26 413.54 C 158.17136877132634 415.4362355614329 157.07182072638233 417.1390078810337 155.38 418 L 141.6 425.02 C 139.24166548205181 426.21166747713386 138.1267347962534 428.96268418845256 138.98999999999998 431.46 L 148.30999999999997 458.52 C 149.1664423139988 461.02026097169073 151.7359397664184 462.5056183029898 154.32999999999998 462 L 169.51 459.04 C 171.3712681560244 458.6785770722975 173.28344297920054 459.34268569352037 174.51999999999998 460.78000000000003 C 178.7072874405467 465.61358905282077 183.5589300395818 469.82889546086517 188.92999999999998 473.3 C 190.5198625724998 474.32891237586466 191.43888542224815 476.128824347156 191.33999999999997 478.02000000000004 L 190.52999999999997 493.46000000000004 C 190.38585128457862 496.09985145127695 192.21385421121778 498.4403785629551 194.80999999999997 498.94000000000005 L 222.89999999999998 504.40000000000003 C 225.49406023358156 504.9056183029898 228.06355768600116 503.42026097169077 228.92 500.92 L 233.95 486.3 C 234.56837232152293 484.5083878421938 236.0981451276431 483.18461935410477 237.95999999999998 482.83 C 244.24605928484314 481.6345476570081 250.32804492179642 479.5432336589195 256.02 476.62 C 257.70496764982937 475.7585946354208 259.72149165971194 475.86151741097245 261.31 476.89 L 274.26 485.31 C 276.47670900208385 486.7523358440983 279.4176759625712 486.3382955027815 281.15 484.34 L 299.92999999999995 462.73999999999995 C 301.66007345953057 460.74633558247416 301.66007345953057 457.78366441752576 299.92999999999995 455.78999999999996 L 289.78999999999996 444.12999999999994 C 288.5431705247771 442.7041929065167 288.1575610011225 440.7188765471065 288.78 438.92999999999995 C 290.8826155271906 432.8893707476467 292.10841696427 426.5785138985067 292.41999999999996 420.18999999999994 C 292.5044873219152 418.29243937221736 293.6052665460239 416.5877604348823 295.29999999999995 415.72999999999996 L 309.0799999999999 408.71999999999997 C 311.4318789693395 407.51738858130733 312.5403723133887 404.7674724008777 311.67999999999995 402.27 Z M 243.9 433 C 237.37575739375325 440.5091964371577 226.9703150196672 443.3485497857638 217.53621789676072 440.1939366252392 C 208.10212077385427 437.03932346471464 201.4974920171237 428.5120708342108 200.80237928083875 418.5888359281511 C 200.1072665445538 408.66560102209144 205.45857800614704 399.30084666975057 214.36074655327323 394.8617963348766 C 223.2629151003994 390.4227460000027 233.96258533131632 391.78370720014647 241.47 398.31 C 251.714867953334 407.2211137760085 252.80248519598956 422.7476331783629 243.9 433 Z" stroke-linecap="round" />
</g>
		<g transform="matrix(1 0 0 1 10.6711657554 151.6995824239)" id="JOngW5wxBPR-2F_rVoj2V"  >
<path style="stroke: none; stroke-width: 1; stroke-dasharray: none; stroke-linecap: butt; stroke-dashoffset: 0; stroke-linejoin: miter; stroke-miterlimit: 4; fill: rgb(89,95,116); fill-rule: nonzero; opacity: 1;" vector-effect="non-scaling-stroke"  transform=" translate(-266.6711657554, -407.6995824239)" d="M 311.682 402.27 L 302.36400000000003 375.21 C 301.5037432024076 372.71166725296274 298.93470021507596 371.2285919637461 296.341 371.733 L 281.16700000000003 374.688 C 279.30757594035134 375.0503085040786 277.39647612617625 374.3894929963622 276.158 372.95599999999996 C 271.9716395934382 368.1194944787898 267.11990703862494 363.9017530690642 261.74799999999993 360.4289999999999 C 260.1562002331623 359.4024790672667 259.23559799973975 357.6024785130654 259.335 355.71099999999996 L 260.149 340.27299999999997 C 260.2878321748495 337.63482085238627 258.46223541497244 335.29737453366516 255.869 334.79299999999995 L 227.775 329.33099999999996 C 225.18100365369816 328.8269114835824 222.61207770547745 330.3110186529381 221.75300000000001 332.80999999999995 L 221.371 333.91799999999995 L 225.869 334.792 C 228.46262998525202 335.29642427196103 230.28834659447978 337.6344506119557 230.149 340.27299999999997 L 229.335 355.71099999999996 C 229.23559799973978 357.6024785130654 230.15620023316234 359.4024790672667 231.74800000000002 360.429 C 237.11990703862503 363.9017530690643 241.97163959343823 368.11949447878976 246.15800000000002 372.9559999999999 C 247.39647612617625 374.3894929963622 249.3075759403513 375.0503085040786 251.16700000000003 374.688 L 266.341 371.733 C 268.9344218811637 371.22847908516565 271.5033579383598 372.71106612398574 272.36400000000003 375.209 L 281.682 402.27 C 282.54213906473234 404.7684453257732 281.43056651683673 407.51879827620706 279.076 408.71799999999996 L 265.29600000000005 415.73299999999995 C 263.60596076510166 416.5939338029767 262.50686071492873 418.29448582504995 262.41600000000005 420.18899999999996 C 262.1043808327162 426.57763452293096 260.88065804093856 432.88886527788327 258.78200000000004 438.931 C 258.1597946177744 440.71991596006256 258.54285385615464 442.7050327103536 259.78600000000006 444.13399999999996 L 269.92600000000004 455.79099999999994 C 271.65954159841124 457.7847459654804 271.6599681169009 460.75075554304476 269.927 462.74499999999995 L 258.36 476.05 C 259.4050982247843 476.0317290632704 260.43200015599444 476.3248312416022 261.31 476.892 L 274.264 485.31 C 276.47952305458534 486.7497075691948 279.4170580253449 486.3376763826472 281.151 484.344 L 299.927 462.74399999999997 C 301.66054769928917 460.74959226242595 301.66012114528326 457.7829091511118 299.92600000000004 455.789 L 289.78600000000006 444.133 C 288.54285385615464 442.7040327103536 288.1597946177744 440.7189159600626 288.78200000000004 438.93 C 290.8803175376204 432.8878152151434 292.10370333724796 426.57658574731505 292.415 420.188 C 292.5058607149287 418.29348582504997 293.6049607651016 416.59293380297675 295.295 415.73199999999997 L 309.075 408.717 C 311.4299506695354 407.5181368800117 312.54198446616317 404.76769809188136 311.682 402.269 Z" stroke-linecap="round" />
</g>
		<g transform="matrix(1 0 0 1 0 0.0121042678)" id="ZBXuK-DQJ27F1Rwvek0nZ"  >
<path style="stroke: none; stroke-width: 1; stroke-dasharray: none; stroke-linecap: butt; stroke-dashoffset: 0; stroke-linejoin: miter; stroke-miterlimit: 4; fill: rgb(39,42,51); fill-rule: nonzero; opacity: 1;" vector-effect="non-scaling-stroke"  transform=" translate(-256, -256.0121042678)" d="M 187.758 203.141 C 202.19948993334347 194.8888790579577 212.75359755843638 181.2180455888173 217.0814658004191 165.1580428485625 C 221.40933404240178 149.0980401083077 219.1535465088127 131.9751811733542 210.81400000000002 117.584 C 193.31345833521047 87.66623514236201 154.96708735806456 77.44952251834853 124.90100000000001 94.69399999999999 C 110.4590332013252 102.94593110402921 99.90455130471243 116.61694983119742 95.57664699651602 132.6772741199148 C 91.24874268831961 148.7375984086322 93.50486129011756 165.86079232796664 101.84500000000003 180.25199999999998 C 119.34161690402593 210.17491701754014 157.6927536921337 220.39289940762995 187.75800000000004 203.142 Z M 114.81800000000001 172.72299999999998 C 108.48083038296133 161.7826482597727 106.7702641290864 148.7661282507464 110.0656276730677 136.55991696025944 C 113.36099121704899 124.35370566977248 121.38993447399507 113.96660307901028 132.37200000000004 107.70199999999997 C 155.27475191396178 94.55247428035545 184.49593284582295 102.32363286235054 197.841 125.11299999999999 C 204.17829750672652 136.05338254027143 205.88904185097533 149.06996111910513 202.59387686489288 161.2763200164477 C 199.2987118788104 173.4826789137903 191.2699634439429 183.87003481796268 180.288 190.135 C 157.3846867244443 203.2844468049293 128.16311627230942 195.51285699719185 114.81800000000001 172.72299999999998 Z M 139.18300000000002 270.293 C 150.5457013512508 271.8846816628792 162.07464907832616 271.88703760023407 173.43800000000002 270.3 C 174.2881306761605 270.20387922272226 175.12580251815842 270.5639678447704 175.64100000000002 271.247 L 191.23300000000003 291.112 C 196.62305447911206 297.9149464526229 206.16902127782978 299.7704697561723 213.71500000000003 295.482 L 255.09500000000003 271.713 C 262.6609161284189 267.3345569165628 265.8557869692922 258.0589467097958 262.591 249.95000000000002 L 253.149 226.717 C 252.80912258312227 225.92343147391173 252.91772317078718 225.00890020936504 253.434 224.317 C 260.4693074398675 215.34590548687984 266.2159219761749 205.43532630296173 270.507 194.87300000000008 C 270.8487575757543 194.0822978201626 271.5840232630878 193.5319902715683 272.439 193.42700000000002 L 297.565 189.91700000000003 C 306.1917494955906 188.67841552822398 312.6079924594679 181.30514043636154 312.643 172.59000000000003 L 312.657 125.17500000000004 C 312.62842696820906 116.45174499175502 306.2047097647263 109.0700901088028 297.56899999999996 107.83700000000005 L 272.46799999999996 104.34400000000005 C 271.6130232630877 104.23900972843175 270.87775757575423 103.68870217983745 270.53599999999994 102.89800000000005 C 268.38782420329164 97.63037560774899 265.8774874629826 92.51781571643131 263.02299999999997 87.59700000000007 L 263.02299999999997 87.59600000000005 C 260.1703133073312 82.68315009414917 256.9820767437522 77.97296660674901 253.48099999999988 73.499 C 252.95995313691208 72.80569135716053 252.84790948172204 71.88723826529666 253.18699999999995 71.08900000000006 L 262.64899999999994 47.83400000000006 C 265.920058348589 39.72209192708132 262.7232855538818 30.439598290596237 255.15099999999995 26.062000000000065 L 213.79399999999995 2.322000000000063 C 206.2487278500922 -1.961197889374633 196.70752853198093 -0.10525717844820726 191.31799999999996 6.69400000000007 L 175.69 26.599 C 175.17144096612927 27.28321405777404 174.3297613216444 27.642249568119134 173.477 27.543 C 162.11430227285155 25.951266418345924 150.585347318791 25.94891047951424 139.22200000000004 27.535999999999966 C 138.37177771918306 27.632741488936677 137.53381009460887 27.27252571931718 137.019 26.589 L 121.426 6.724 C 116.03547692817158 -0.07817585701674634 106.49012452800973 -1.933579735172927 98.94399999999999 2.35400000000001 L 57.564 26.122999999999998 C 49.99722270164752 30.501225671254375 46.80217118372119 39.777786668606126 50.068 47.887 L 59.51 71.12 C 59.85072179748461 71.91344654697886 59.74206915959884 72.82841612917481 59.225 73.52000000000001 C 52.18941078403364 82.4907184613753 46.44245993811493 92.40096056963256 42.151 102.963 C 41.80959601685577 103.75313762876893 41.07523081287739 104.30334078159417 40.221 104.409 L 15.093999999999998 107.91900000000001 C 6.466876498888446 109.15764018926556 0.05051289517353119 116.53147946006885 0.01600000000000179 125.24700000000001 L 0.002 172.662 C 0.030573031790943866 181.385255008245 6.4542902352736435 188.76690989119723 15.089999999999991 190 L 40.191 193.493 C 41.046122987437194 193.59837751916817 41.781354261200626 194.14903986551167 42.123000000000005 194.94 C 46.421624390446205 205.48147533020241 52.161652246003165 215.3757541149922 59.179000000000045 224.34000000000003 C 59.699890251396205 225.03260902426078 59.81194744396935 225.95041079200274 59.473 226.748 L 50.010999999999996 250.00199999999998 C 46.738264542110514 258.11391631025515 49.934871123155204 267.3975917923261 57.507999999999996 271.775 L 98.864 295.51399999999995 C 101.49881904621807 297.02444401598837 104.48394730912224 297.81684608924166 107.521 297.81199999999995 C 112.90647424273051 297.8253125499841 118.00038099842102 295.3671892392967 121.34100000000001 291.143 L 136.969 271.23799999999994 C 137.486713446137 270.55212966739816 138.32966138873888 270.1927155491433 139.183 270.2939999999999 Z M 125.17100000000002 261.973 L 109.54300000000002 281.879 C 108.77310497881055 282.85043672248605 107.41005114386776 283.11574617338584 106.33200000000002 282.504 L 64.97600000000003 258.76500000000004 C 63.89447452824699 258.1395909802714 63.43754671501978 256.8139888355544 63.904000000000025 255.65500000000003 L 73.36700000000002 232.40000000000003 C 75.72583302288103 226.6197880000196 74.81917015135379 220.0199838342768 70.98900000000002 215.09000000000003 C 64.82734935386554 207.219963206298 59.787308223532186 198.53316154656477 56.013000000000034 189.27800000000002 C 53.64505150332041 183.53827791504148 48.40842601420487 179.48679347627976 42.25800000000002 178.63600000000002 L 17.158000000000015 175.14200000000002 C 15.924358739429275 174.9662637106373 15.00642513865485 173.91208764592605 15.002000000000015 172.66600000000003 L 15.016000000000014 125.25100000000003 C 15.020636193543632 124.00606009807397 15.936768198505092 122.95248701665987 17.169000000000015 122.77500000000003 L 42.296000000000014 119.26500000000003 C 48.44774644621212 118.41079244430381 53.683296590745286 114.35439281955969 56.04700000000001 108.61100000000003 C 59.81209693391572 99.34368621362317 64.85422323563847 90.6482061816669 71.02700000000002 82.77700000000004 C 74.85873390744288 77.8496952678977 75.76630019545377 71.25077316116298 73.40700000000001 65.47200000000004 L 63.96400000000001 42.23900000000003 C 63.49720181937809 41.080502983176274 63.953225063181286 39.75505224651464 65.034 39.12900000000003 L 106.41400000000002 15.362000000000034 C 106.79073487750054 15.145811319349308 107.21764265397688 15.032360060495742 107.65200000000002 15.033000000000033 C 108.42134065075773 15.03108457895409 109.1489974323785 15.38237987423503 109.62600000000002 15.986000000000033 L 125.21800000000002 35.85000000000004 C 129.0366952641691 40.73038471428207 135.15687277045492 43.21994199466861 141.298 42.391000000000034 C 151.28303564299284 40.996402119399924 161.41361408719618 40.998758067875315 171.398 42.398000000000025 C 177.54084368326374 43.228078937716 183.66362785383888 40.7412924520287 187.488 35.86300000000002 L 203.11599999999999 15.956000000000028 C 203.8861758611305 14.984907489654884 205.24918470878063 14.72003127634636 206.327 15.332000000000027 L 247.684 39.072000000000024 C 248.76477493681872 39.69805224651463 249.22079818062193 41.023502983176265 248.754 42.18200000000002 L 239.29299999999998 65.43600000000002 C 236.9338181506078 71.21588853197947 237.8396993171373 77.81555309116544 241.66899999999998 82.74600000000002 C 247.83136586668667 90.61573097886803 252.87177570889773 99.30258808290439 256.6459999999999 108.55799999999994 C 259.01377218146865 114.29744263900119 264.2499486345548 118.34887420899851 270.4 119.2 L 295.501 122.694 C 296.734244315266 122.87018640531426 297.65164687124906 123.92424149979882 297.65599999999995 125.17 L 297.64199999999994 172.585 C 297.6372912127097 173.83026857475014 296.7206287531441 174.88396228407439 295.48799999999994 175.061 L 270.36099999999993 178.571 C 264.2096282747912 179.42553988198688 258.974527179839 183.48188657766838 256.61099999999993 189.225 C 252.84559335396307 198.4926800303108 247.80313237868967 207.18849334692442 241.62999999999994 215.06 C 237.79956843280488 219.9875172727372 236.89244583204783 226.5856044873232 239.25099999999995 232.364 L 248.69399999999996 255.597 C 249.16062566591603 256.75574289744 248.7041501757203 258.08126929754155 247.62299999999996 258.707 L 206.24399999999997 282.474 C 205.1658790894219 283.08610613139473 203.8025210290953 282.8212445405965 203.03199999999998 281.84999999999997 L 187.43999999999997 261.986 C 183.62143164113598 257.10544716593927 177.50115371556143 254.61584903713432 171.35999999999996 255.445 C 161.374899551971 256.8386635113466 151.24445115242324 256.83630759311416 141.25999999999993 255.43800000000002 C 135.11710357912904 254.60750380798376 128.9941190043929 257.0943716884002 125.16999999999996 261.973 Z M 246.39200000000002 392.645 C 235.64232746510845 383.30169513248694 220.02088079738232 382.16060888810523 208.0275742758557 389.84262712131726 C 196.03426775432905 397.52464535452935 190.53845097969867 412.19187657890905 194.5304981773009 425.8636125559828 C 198.52254537490313 439.5353485330565 211.04737555753545 448.94068227014156 225.29000000000002 448.962 Q 226.42900000000003 448.962 227.57600000000002 448.882 C 240.52536607836106 447.9769689045941 251.6543416187466 439.3602308175674 255.77313332696048 427.0500432487524 C 259.8919250351744 414.73985567993736 256.1893357639091 401.16071341957246 246.39200000000002 392.645 Z M 238.23700000000002 428.08099999999996 C 233.16125458146817 433.9194137677349 224.7969229318748 435.62080414734 217.84369883214623 432.229205483586 C 210.8904747324177 428.83760681983193 207.0820971623599 421.19869109493465 208.5583914100209 413.6045603236517 C 210.0346856576819 406.0104295523687 216.4275478267795 400.3546284194501 224.14499999999998 399.81499999999994 Q 224.756 399.77199999999993 225.36200000000002 399.77199999999993 C 229.4771834896666 399.7667259130091 233.45403191258646 401.25724443720264 236.55200000000002 403.96599999999995 C 243.666037222753 410.165072283882 244.41981583911056 420.95282975181186 238.23700000000002 428.08099999999996 Z M 381.13 227.026 C 371.2830436793493 232.65425925018627 364.0872535819598 241.97714171922135 361.13719991751316 252.9287185164225 C 358.18714625306643 263.88029531362366 359.72644817951505 275.55617139365984 365.414 285.369 C 377.3362560155796 305.76468833113756 403.47457633949455 312.7309488970395 423.966 300.97400000000005 C 433.8131261538602 295.34590902379523 441.00912887446395 286.02310083403734 443.95937418243153 275.07150943601255 C 446.90961949039917 264.11991803798776 445.3704695715157 252.44395018837656 439.683 242.63100000000003 C 427.7567865267505 222.23986799326696 401.62248873134985 215.27479844777437 381.13 227.02600000000004 Z M 429.49399999999997 271.101 C 427.59580829024065 278.23758691675084 422.91277188895936 284.3137536945039 416.49499999999995 287.967 C 403.1656265082767 295.62281830923143 386.1566707707181 291.10233169985827 378.38699999999994 277.839 C 374.70241683563603 271.47702725302935 373.70866708871694 263.9078248088952 375.6261800909991 256.81036088053395 C 377.5436930932814 249.71289695217266 382.21394483945824 243.67393074700803 388.60099999999994 240.03300000000002 C 401.93041393808846 232.37691985918934 418.9396011633775 236.89690303981604 426.7099999999999 250.16 C 430.4064641877259 256.48531212693075 431.409440883513 264.02961348701655 429.4939999999999 271.101 Z M 496.90999999999997 233.141 L 484.20199999999994 231.37199999999999 C 483.3264317524351 231.2447451475612 482.5821343882719 230.66677545967534 482.24199999999996 229.85 C 480.898142219941 226.74950022606225 479.3745540534632 223.73003763797135 477.679 220.80699999999996 C 475.98701811833183 217.89287191559075 474.1272202317013 215.07946850576153 472.1089999999999 212.38099999999991 C 471.56461188447884 211.67655901474862 471.43303287814547 210.73687194928698 471.763 209.91 L 476.53 198.195 C 479.80273545788947 190.08308368974483 476.60612887684476 180.79940820767385 469.03299999999996 176.422 L 445.453 162.887 C 437.9081850560211 158.60144114423565 428.3654992267689 160.4567393189846 422.976 167.257 L 415.054 177.347 C 414.5409694589588 178.01416819779763 413.7207612228828 178.37043552466068 412.883 178.29000000000002 C 406.06527275292336 177.4756163465309 399.1752231671493 177.46923884654896 392.356 178.27100000000002 C 391.48616411849076 178.38158409768798 390.6219132177008 178.0287512014041 390.078 177.341 L 382.179 167.279 C 376.7892908596327 160.47620543795725 367.24367308812776 158.62066744314043 359.698 162.909 L 336.099 176.464 C 328.5325784207226 180.84251863890134 325.33763186506576 190.11877488720918 328.603 198.228 L 333.35900000000004 209.931 C 333.68968759474365 210.75302493924568 333.5611376628641 211.68862503517363 333.021 212.39100000000002 C 328.9626843396014 217.80798393097007 325.5559242524429 223.6837220675019 322.87100000000004 229.89700000000005 C 322.53133854056404 230.71254676942883 321.7882339845349 231.28971535663592 320.91400000000004 231.41700000000003 L 308.184 233.19700000000003 C 299.5582397529875 234.4363789954678 293.14285680073255 241.8087292661297 293.107 250.52300000000002 L 293.09900000000005 277.521 C 293.1280016239732 286.2440938266814 299.55150906611544 293.62550766760546 308.18700000000007 294.85900000000004 L 320.8950000000001 296.627 C 321.77056824756494 296.7542548524388 322.5148656117281 297.33222454032466 322.8550000000001 298.149 C 325.54076639725906 304.3470925459268 328.94148663716993 310.21017185030286 332.98800000000006 315.619 C 333.5322441076636 316.32354814483693 333.6634555937751 317.26332664391407 333.3330000000001 318.09000000000003 L 328.5660000000001 329.805 C 325.2934367326409 337.91716240850366 328.49049582940074 347.2009137707006 336.0640000000001 351.57800000000003 L 359.64400000000006 365.11300000000006 C 362.2788907498591 366.6232695687353 365.2639715629869 367.415659046449 368.30100000000004 367.41100000000006 C 373.6863040874527 367.42455414913786 378.78018016394003 364.96681423032334 382.12100000000004 360.74300000000005 L 390.04300000000006 350.6530000000001 C 390.55328542085556 349.9828032565087 391.3748056455921 349.6254230297109 392.2130000000001 349.70900000000006 C 399.0309609959336 350.5247384208294 405.92146243536746 350.5314516919122 412.7410000000001 349.72900000000004 C 413.6104911377128 349.6193966295353 414.4741298794896 349.97160048867073 415.0190000000001 350.658 L 422.91700000000014 360.721 C 428.30752307182854 367.5231758570167 437.8528754719904 369.37857973517293 445.3990000000001 365.091 L 468.9980000000001 351.535 C 476.5638965254874 347.15652820193185 479.7584200126254 337.880689022401 476.4930000000001 329.77200000000005 L 471.7370000000001 318.0690000000001 C 471.40651994858774 317.2469494227443 471.53505527481946 316.3114556282768 472.0750000000001 315.6090000000001 C 476.1335557224028 310.1921748010998 479.540332770787 304.31640741104906 482.2250000000001 298.10300000000007 C 482.5645624813739 297.28678902952316 483.30816504389907 296.70914883667297 484.1830000000001 296.58200000000005 L 496.9130000000001 294.80300000000005 C 505.53876024701265 293.5636210045323 511.9541431992676 286.1912707338704 511.9900000000001 277.47700000000003 L 511.9980000000001 250.47800000000004 C 511.96899837602695 241.75490617331866 505.5454909338847 234.37349233239462 496.9100000000001 233.14000000000004 Z M 496.98999999999995 277.473 C 496.98436968861625 278.71772766650554 496.06803655771085 279.77061740605564 494.83599999999996 279.94800000000004 L 482.10799999999995 281.72600000000006 C 476.05698925201807 282.6001732371244 470.89055123945843 286.5462375156692 468.4549999999999 292.15400000000005 C 466.23758818074504 297.286164477107 463.4239041217863 302.1395429206885 460.07199999999995 306.61400000000003 C 456.39741152154846 311.5357236761652 455.55165758829656 318.01604794429875 457.8399999999999 323.716 L 462.5969999999999 335.42 C 463.063217247616 336.57821864023543 462.60726959931395 337.90302353609627 461.52699999999993 338.529 L 437.9289999999999 352.08299999999997 C 436.85064624950587 352.69568794230867 435.48663234431046 352.4307814135685 434.7159999999999 351.45899999999995 L 426.81799999999987 341.39599999999996 C 423.0320908065805 336.61460633229547 417.0424023399742 334.13157519077697 410.98399999999987 334.83199999999994 C 405.3397728057466 335.4956729143073 399.63688776676764 335.48996667265556 393.99399999999986 334.81499999999994 C 387.9594391087617 334.12641130475083 381.9990972477767 336.61439704315427 378.24499999999983 341.38899999999995 L 370.3229999999998 351.47999999999996 C 369.55271290054435 352.45162945674 368.1890481136886 352.7165506357556 367.1109999999998 352.104 L 343.53099999999984 338.56899999999996 C 342.4498498242795 337.9432692975415 341.99337433408374 336.61774289743994 342.4599999999998 335.45899999999995 L 347.2269999999998 323.74299999999994 C 349.51710126351696 318.0405470661295 348.6721335969029 311.5570305892536 344.9969999999998 306.63199999999995 C 341.65118155698286 302.15979319968324 338.83944583350274 297.3119151230933 336.6189999999998 292.18699999999995 C 334.1791493473268 286.58303877012276 329.01169391948997 282.64189388205443 322.9619999999998 281.77099999999996 L 310.2539999999998 280.003 C 309.02038127050935 279.82675843423436 308.1028577454316 278.772138586616 308.0989999999998 277.526 L 308.1069999999998 250.526 C 308.11305123566564 249.28198091957714 309.0287339492071 248.22977514470415 310.2599999999998 248.05200000000002 L 322.98799999999983 246.27400000000003 C 329.0391656038341 245.40019523280827 334.20576349934703 241.45400883755389 336.64099999999985 235.84600000000003 C 338.8585976303522 230.71424154410784 341.67227201887476 225.86121542175934 345.02399999999983 221.38700000000003 C 348.6995044788284 216.46488551150514 349.5452985043839 209.9834961687177 347.25599999999986 204.28300000000002 L 342.4999999999999 192.58 C 342.0337827523838 191.42178135976457 342.4897304006858 190.09697646390373 343.5699999999999 189.471 L 367.16899999999987 175.916 C 367.54559094199925 175.70046042557055 367.97209027443955 175.58737086935355 368.4059999999999 175.588 C 369.1753406507576 175.58608457895406 369.90299743237836 175.937379874235 370.3799999999999 176.541 L 378.2779999999999 186.603 C 382.0639289574631 191.38444927604843 388.05346888656925 193.86779711200788 394.1119999999999 193.168 C 399.75651440253523 192.50385980356884 405.4597464153581 192.50923039459968 411.1029999999999 193.18399999999997 C 417.1373642425476 193.87120293531802 423.09705581210034 191.38348864372875 426.8519999999999 186.60999999999999 L 434.77399999999994 176.51999999999998 C 435.54383065819286 175.5490594961007 436.9064903261968 175.28416864475042 437.9839999999999 175.896 L 461.56499999999994 189.42999999999998 C 462.6468813713595 190.05511569412616 463.10391433476275 191.3810228920593 462.63699999999994 192.54 L 457.86999999999995 204.257 C 455.57961467364044 209.95928198390644 456.42420168641127 216.4427850684835 460.09899999999993 221.368 C 463.4454789590323 225.8397735098404 466.2578883632388 230.68732022038435 468.4789999999999 235.81199999999998 C 470.9182144344481 241.4158010847918 476.0848324589328 245.35726281756791 482.1339999999999 246.22899999999998 L 494.8419999999999 247.99699999999999 C 496.0760156980979 248.17279132839715 496.9940703577766 249.22753223378868 496.99799999999993 250.474 Z M 309.45599999999996 372.76800000000003 C 307.3579984800891 366.75024861239143 301.1682444924428 363.1775675404732 294.90799999999996 364.37100000000004 L 280.98099999999994 367.08400000000006 C 276.8125185559146 362.4313682330871 272.0796003365523 358.3172331324745 266.89199999999994 354.83700000000005 L 267.63999999999993 340.66700000000003 C 267.9510283345584 334.3015913371649 263.5513551347363 328.6692437408356 257.29999999999995 327.43 L 229.20699999999997 321.969 C 222.9468285825971 320.7783538871917 216.75880004944128 324.3518063606215 214.66099999999997 330.36899999999997 L 210.04599999999996 343.789 C 203.92817278501298 345.06409372451765 197.9949639273894 347.1034242888311 192.38599999999997 349.859 L 180.49899999999997 342.133 C 175.1419082849544 338.68129316236394 168.06470568693146 339.67475643436006 163.86499999999995 344.46799999999996 L 145.08899999999994 366.068 C 140.92587578038112 370.89341168918384 140.9267267856982 378.04057984471314 145.09099999999995 382.865 L 154.39699999999996 393.562 C 152.44830929196578 399.4994621041689 151.25426883781003 405.65848000106917 150.84299999999996 411.89400000000006 L 138.19699999999995 418.332 C 132.5288170315036 421.2451901753724 129.85072081045638 427.8714997480397 131.90299999999993 433.905 L 141.21999999999994 460.965 C 143.31840725293372 466.9829011686095 149.5084938864848 470.55552866616455 155.76899999999995 469.36199999999997 L 169.69499999999994 466.64899999999994 C 173.8637912259281 471.3016959647485 178.5970483569445 475.41583365698114 183.78499999999994 478.89599999999996 L 183.03699999999995 493.066 C 182.72624904457544 499.4311903548585 187.12513107120677 505.0634952459065 193.37599999999995 506.304 L 221.46899999999994 511.76399999999995 C 222.26566903720303 511.918987378217 223.0753950209162 511.99701308301655 223.88699999999994 511.99699999999996 C 229.35294777472717 511.98641732380736 234.21595832775117 508.5244093163198 236.01499999999993 503.36299999999994 L 240.62999999999994 489.94399999999996 C 246.74782721498693 488.6689062754823 252.68103607261054 486.62957571116885 258.28999999999996 483.87399999999997 L 270.17699999999996 491.59999999999997 C 275.53369946858265 495.05349000955755 282.61216235139386 494.0598498249138 286.811 489.265 L 305.587 467.66499999999996 C 309.7501242196188 462.8395883108161 309.7492732143017 455.6924201552868 305.585 450.86799999999994 L 296.28 440.1719999999999 C 298.22796081744553 434.23404966373687 299.42165444899865 428.0747517894718 299.83299999999997 421.83899999999994 L 312.479 415.40099999999995 C 318.14718296849634 412.4878098246275 320.8252791895435 405.86150025196025 318.77299999999997 399.828 Z M 291.89199999999994 409.05 C 287.8109262182613 411.1369569811196 285.15459900881086 415.2440269825837 284.92499999999995 419.822 C 284.64904749271636 425.49686375668665 283.56236460927596 431.10302943487574 281.698 436.47 C 280.2012663866553 440.7981778624364 281.1276072464074 445.5960898216299 284.128 449.05600000000004 L 293.01099999999997 459.26800000000003 L 276.746 477.98 L 265.397 470.60400000000004 C 261.55280667777214 468.1138654425128 256.6719227642111 467.86454121542 252.594 469.95000000000005 C 247.5392065016036 472.54261098764374 242.13950734333898 474.39874705002944 236.559 475.46200000000005 C 232.05621740661164 476.3255531894535 228.35773640808523 479.52869169730195 226.85999999999999 483.862 L 222.45299999999997 496.67400000000004 L 198.11699999999996 491.944 L 198.83099999999996 478.416 C 199.06353502028415 473.8442121531076 196.84068738849206 469.495328154694 192.99899999999997 467.006 C 188.22351888092 463.9185275274356 183.91049455147584 460.1687888891046 180.18899999999996 455.86899999999997 C 177.18849180684163 452.41079257327056 172.57147009962958 450.8152462291453 168.07599999999996 451.683 L 154.77999999999997 454.27299999999997 L 146.70899999999997 430.83099999999996 L 158.783 424.68399999999997 C 162.8653462146852 422.59727336119397 165.52230885546322 418.48904783138016 165.75099999999998 413.90999999999997 C 166.02680135362337 408.2354438857263 167.11348967922694 402.62958688035815 168.97799999999998 397.263 C 170.4751598285767 392.93485250520484 169.5487770301293 388.136723327732 166.54799999999997 384.67699999999996 L 157.66499999999996 374.465 L 173.92999999999995 355.753 L 185.27999999999994 363.12899999999996 C 189.12368639353545 365.6195663364724 194.00452092565627 365.86890751628863 198.08199999999994 363.78299999999996 C 203.13746405629288 361.1903107900214 208.5378341877541 359.33417559237756 214.11899999999994 358.27099999999996 C 218.62092929994745 357.4066055247058 222.3184371238774 354.20364938146446 223.81599999999995 349.871 L 228.22299999999996 337.05899999999997 L 252.55999999999995 341.789 L 251.84599999999995 355.317 C 251.6132505114802 359.888588992208 253.83569413392817 364.2374282534207 257.67699999999996 366.72700000000003 C 260.06125827107826 368.269420432737 262.3335804419365 369.97834037123243 264.477 371.841 L 264.47799999999995 371.841 C 266.6209826183926 373.70429654973896 268.6293381898858 375.7169963179758 270.48799999999994 377.86400000000003 C 273.4888665548609 381.32167726934085 278.1055753328749 382.9171154716662 282.60099999999994 382.05 L 295.89599999999996 379.46000000000004 L 303.96799999999996 402.90200000000004 Z" stroke-linecap="round" />
</g>
</g>
</g>
</svg>