<?xml version="1.0" encoding="UTF-8" standalone="no" ?>
<!DOCTYPE svg PUBLIC "-//W3C//DTD SVG 1.1//EN" "http://www.w3.org/Graphics/SVG/1.1/DTD/svg11.dtd">
<svg xmlns="http://www.w3.org/2000/svg" xmlns:xlink="http://www.w3.org/1999/xlink" version="1.1" width="320" height="320" viewBox="0 0 320 320" xml:space="preserve">
<desc>Created with Fabric.js 5.3.0</desc>
<defs>
</defs>
<g transform="matrix(1.0542473107 0 0 1.0542473107 160 160)" id="5JByjIhZxckn1y22kOCFT"  >
<g style="" vector-effect="non-scaling-stroke"   >
		<g transform="matrix(1 0 0 1 0 0)" id="5I-L3oH00u6WrwSnJrupa"  >
<path style="stroke: none; stroke-width: 1; stroke-dasharray: none; stroke-linecap: butt; stroke-dashoffset: 0; stroke-linejoin: miter; stroke-miterlimit: 4; fill: none; fill-rule: nonzero; opacity: 1;" vector-effect="non-scaling-stroke"  transform=" translate(-128, -128)" d="M 0 256 L 0 0 L 256 0 L 256 256 z" stroke-linecap="round" />
</g>
		<g transform="matrix(1 0 0 1 0 0)" id="yT7XMZxsSA62BY5I8Tmwy"  >
<path style="stroke: rgb(0,0,0); stroke-width: 12; stroke-dasharray: none; stroke-linecap: round; stroke-dashoffset: 0; stroke-linejoin: round; stroke-miterlimit: 4; fill: none; fill-rule: nonzero; opacity: 1;" vector-effect="non-scaling-stroke"  transform=" translate(-128, -128)" d="M 224 177.32122 L 224 78.67878 C 223.99999846446514 75.78859505593792 222.44110447815615 73.12312568340685 219.92209 71.70618 L 131.92209 22.206180000000003 C 129.48678162416186 20.836319000457216 126.51321837583814 20.836319000457216 124.07791 22.206180000000003 L 36.07791 71.70618 C 33.558895521843866 73.12312568340685 32.000001535534864 75.78859505593792 32 78.67878000000002 L 32 177.32121999999998 C 32.000001535534864 180.21140494406208 33.558895521843866 182.87687431659313 36.07791 184.29381999999998 L 124.07791 233.79381999999998 C 126.51321837583815 235.16368099954278 129.48678162416186 235.16368099954278 131.92209 233.79381999999998 L 219.92209 184.29381999999998 C 222.44110447815612 182.87687431659313 223.99999846446514 180.21140494406208 224 177.32122 Z" stroke-linecap="round" />
</g>
		<g transform="matrix(1 0 0 1 0.511 -28.2445)" id="aj9xjN3mODmUGJbeQ-AGs"  >
<polyline style="stroke: rgb(0,0,0); stroke-width: 12; stroke-dasharray: none; stroke-linecap: round; stroke-dashoffset: 0; stroke-linejoin: round; stroke-miterlimit: 4; fill: none; fill-rule: nonzero; opacity: 1;" vector-effect="non-scaling-stroke"  points="48.511,52.7555 48.511,0.7555 -48.511,-52.7555 " />
</g>
		<g transform="matrix(1 0 0 1 0.0025 -26.6915)" id="ODLeOa06nFSrQjt6pGQV1"  >
<polyline style="stroke: rgb(0,0,0); stroke-width: 12; stroke-dasharray: none; stroke-linecap: round; stroke-dashoffset: 0; stroke-linejoin: round; stroke-miterlimit: 4; fill: none; fill-rule: nonzero; opacity: 1;" vector-effect="non-scaling-stroke"  points="94.8945,-26.6815 0.9465,26.6915 -94.8945,-26.6915 " />
</g>
		<g transform="matrix(1 0 0 1 0.4795 53.4105)" id="kZszCz5tW0Kwp8R9SS3H2"  >
<line style="stroke: rgb(0,0,0); stroke-width: 12; stroke-dasharray: none; stroke-linecap: round; stroke-dashoffset: 0; stroke-linejoin: round; stroke-miterlimit: 4; fill: none; fill-rule: nonzero; opacity: 1;" vector-effect="non-scaling-stroke"  x1="0.4695000000000107" y1="-53.4105" x2="-0.4695000000000107" y2="53.4105" />
</g>
</g>
</g>
</svg>